grf
version=1
nRows=18
nColumns=28
inDegrees=no
endheader
time	ground_force_1_vx	ground_force_1_vy	ground_force_1_vz	ground_force_1_px	ground_force_1_py	ground_force_1_pz	ground_moment_1_mx	ground_moment_1_my	ground_moment_1_mz	ground_force_2_vx	ground_force_2_vy	ground_force_2_vz	ground_force_2_px	ground_force_2_py	ground_force_2_pz	ground_moment_2_mx	ground_moment_2_my	ground_moment_2_mz	ground_force_3_vx	ground_force_3_vy	ground_force_3_vz	ground_force_3_px	ground_force_3_py	ground_force_3_pz	ground_moment_3_mx	ground_moment_3_my	ground_moment_3_mz
      0.00000000	      0.52497127	      0.27806135	      0.47629917	    -40.35001986	  -1358.11004665	      2.38494425	     -0.04609737	     -0.16668868	    -91.33642373	      0.46231784	      0.34069558	      1.80732617	     78.14119300	  -1454.32063594	      0.36952815	     -0.01472968	     -0.19049809	    228.26880122	      1.73658067	     -0.53843504	      4.31850719	    512.03011398	   -307.89968194	      0.44739281	     -0.14220695	      1.04464185	    508.67805502
      0.01000000	      0.35834606	      0.23324808	      1.07762041	    249.26307332	  -1281.14153707	      2.09830962	     -0.05649096	     -0.20427203	   -111.93007500	      0.64385710	      0.49359129	      2.51377809	    143.84907599	  -1555.41380359	      0.28940244	     -0.02442591	     -0.31589872	    378.53303583	      1.88012750	     -0.83549384	      4.60242967	    450.85984415	   -324.16225209	      0.46368942	     -0.10591817	      0.77806715	    378.87212986
      0.02000000	      0.48630866	      0.07369101	      1.27734261	    231.47279168	  -1253.17484545	      2.05624923	     -0.06195319	     -0.22402354	   -122.75283794	      0.56459805	      0.53664216	      1.98380197	     52.42158721	  -1444.61786731	      0.37596581	     -0.02396447	     -0.30993103	    371.38211827	      1.75227830	     -0.71127069	      4.57402173	    524.61927596	   -259.60209788	      0.35172639	     -0.15734495	      1.15584452	    562.82709917
      0.03000000	      0.35327371	      0.19569012	      1.53863089	    285.07043535	  -1271.11950581	      2.06194752	     -0.07250339	     -0.26217318	   -143.65678443	      0.60021606	      0.56843978	      1.24595839	   -159.53987772	  -1217.09528346	      0.55216375	     -0.04612309	     -0.59650710	    714.77859796	      1.69273599	     -0.59475149	      5.32722095	    483.30030829	   -336.64833942	      0.49840047	     -0.13732331	      1.00876698	    491.20914177
      0.04000000	      0.47386920	      0.38676813	      1.10306725	    248.34815616	  -1367.52749707	      2.25642548	     -0.06439131	     -0.23283981	   -127.58367662	      0.30624802	      0.40409394	      2.23328955	    154.40261468	  -1538.48040452	      0.30421494	     -0.01669477	     -0.21591247	    258.72217458	      1.64223350	     -0.64100626	      4.78009785	    487.89090154	   -325.88171410	      0.47757304	     -0.12015145	      0.88262380	    429.78496341
      0.05000000	      0.40420301	      0.15774054	      0.87266898	    157.29393111	  -1262.55713302	      2.11080985	     -0.07424758	     -0.26848022	   -147.11270543	      0.26669587	      0.53437543	      1.63615074	     41.01778498	  -1361.22526875	      0.44482392	     -0.02495157	     -0.32269704	    386.67929110	      1.65752937	     -0.57652027	      5.26193503	    459.90861700	   -322.68610072	      0.46318762	     -0.09733339	      0.71500394	    348.16412382
      0.06000000	      0.23430886	      0.21341191	      0.77154541	    149.77370705	  -1410.92051675	      2.38536800	     -0.04939880	     -0.17862670	    -97.87781380	      0.38384749	      0.49257643	      2.10561107	    108.34687519	  -1410.50933438	      0.40803928	     -0.02593235	     -0.33538150	    401.87873480	      1.76066283	     -0.64795697	      4.93701283	    489.11690765	   -301.50254382	      0.42784974	     -0.13911905	      1.02195841	    497.63257631
      0.07000000	      0.11218724	      0.04657134	      1.84064922	    299.53271584	  -1223.12419545	      1.96705714	     -0.06971284	     -0.25208252	   -138.12764563	      0.49729510	     -0.20158832	      1.55278632	      9.77504192	  -1362.85115551	      0.44145103	     -0.01050569	     -0.13586948	    162.80878866	    -36.23814521	     55.43201839	   -157.60718813	    490.02000507	   -349.64827561	      0.52697623	      0.03044075	     -0.22361551	   -108.88736928
      0.08000000	     -0.18261144	      0.80227284	      1.02167371	    132.23811821	  -1400.64908377	      2.37547285	      0.12645161	      0.45725065	    250.54873560	      0.04196836	      0.97312643	      0.27306731	  -3236.10484381	   2335.11759326	      3.31808246	     -0.25770071	     -3.33282723	   3993.63829052	   -181.34806654	    266.86073376	  -1037.53563329	    484.16106600	   -374.01566289	      0.57538015	     -0.34123827	      2.50671140	   1220.61841758
      0.09000000	      0.25868665	      0.32658287	      1.51064111	    285.84002498	  -1250.48210498	      2.02389592	     -0.00336619	     -0.01217219	     -6.66970480	      0.42401869	      0.24143606	      2.19340534	    113.60236261	  -1480.34342200	      0.35009948	     -0.01549324	     -0.20037307	    240.10172178	    -41.63043110	    127.33274536	  -1619.33430061	    463.83313348	   -367.29010167	      0.55588535	     -0.84638847	      6.21750788	   3027.55419638
      0.10000000	      0.84836117	      0.31982417	      0.86949063	    329.83491041	  -1346.85042866	      2.17756364	     -0.15910823	     -0.57533740	   -315.25391448	      0.53940854	      0.57524186	      0.75652946	   -615.14223043	   -782.77193833	      0.88522237	     -0.07536962	     -0.97475059	   1168.01772587	    105.63854503	    143.70190121	  -1851.19037115	    452.36659413	   -380.01951404	      0.57882138	      1.22741968	     -9.01653530	  -4390.51301847
      0.11000000	      0.61458538	      0.20430493	      1.56220833	    307.53944532	  -1310.74020626	      2.12291509	     -0.11479575	     -0.41510292	   -227.45405038	      0.45970298	      0.34635445	      0.82423898	   -448.58376498	   -866.20814039	      0.82633966	     -0.04518678	     -0.58439788	    700.26844647	     59.93668313	    381.05863001	  -2014.27794917	    453.69938044	   -405.21492606	      0.63093630	      3.09854501	    -22.76168526	 -11083.57835718
      0.12000000	      0.34240139	      0.20851868	      1.40293159	    289.65305900	  -1278.75632102	      2.07357184	     -0.05465453	     -0.19763150	   -108.29141860	      0.27997746	      0.65924513	      1.87611734	     77.84876947	  -1437.55139009	      0.38350379	     -0.02892977	     -0.37414694	    448.33033496	     27.74075870	    316.91377418	  -2094.34308793	    455.43078395	   -416.01421034	      0.65359818	      1.49840534	    -11.00717615	  -5359.83596936
      0.13000000	      0.32687136	      0.19988006	      0.84795504	    123.67453510	  -1318.95148483	      2.23069702	     -0.03123999	     -0.11296419	    -61.89829486	      0.26923651	      0.53451478	      1.60657625	    -59.08271815	  -1260.88888510	      0.52209878	     -0.03399220	     -0.43961902	    526.78379184	      7.13158735	    290.79134436	  -2283.41120448	    456.07015689	   -421.23802960	      0.66450477	      1.00107400	     -7.35381648	  -3580.86847375
      0.14000000	      0.55256701	      0.18427652	      1.36720376	    271.81803628	  -1349.67070967	      2.21199169	     -0.08288987	     -0.29973083	   -164.23635695	      0.56348530	      0.42192249	      1.11664224	   -263.28667828	  -1094.81704168	      0.64751456	     -0.04479658	     -0.57935140	    694.22137934	      1.84861397	    244.01995328	  -2432.79866602	    455.87067399	   -424.45327352	      0.67105196	      0.38410455	     -2.82160395	  -1373.95224043
      0.15000000	      0.68753677	      0.03616139	      1.26709563	    307.73314602	  -1255.01148099	      2.02111259	     -0.05563512	     -0.20117731	   -110.23433178	      0.61892551	      0.18546583	      1.28614817	   -150.00021925	  -1197.55765769	      0.56908414	     -0.02823042	     -0.36510233	    437.49241618	    -25.74867025	    155.49174453	  -2519.50209471	    457.07626513	   -426.47890220	      0.67554891	     -0.44271663	      3.25216405	   1583.60923916
      0.16000000	      0.62256960	      0.22711846	      1.46735261	    288.94588310	  -1319.77298723	      2.14878404	     -0.07848080	     -0.28378758	   -155.50031128	      0.48549965	      0.38991835	      1.40671107	    -62.38077142	  -1246.22384124	      0.53412444	     -0.02977928	     -0.38513353	    461.49527220	    -35.48432049	     84.32544088	  -2557.50579194	    457.95994635	   -429.45801512	      0.68191398	     -0.31758811	      2.33297902	   1136.02114639
      0.17000000	      0.43771586	      0.09741036	      1.17971392	    264.68346563	  -1279.03001208	      2.08667344	     -0.07258785	     -0.26247859	   -143.82413180	      0.41696576	      0.24410779	      1.41821080	    -13.22986969	  -1365.03658031	      0.43814276	     -0.02121120	     -0.27432315	    328.71413852	    -11.90690504	     30.39754433	  -2494.31362598	    458.01617729	   -435.59655637	      0.69453605	      0.39337819	     -2.88972741	  -1407.12428812
